<?xml version="1.0" encoding="UTF-8" standalone="no"?>
<!DOCTYPE svg PUBLIC "-//W3C//DTD SVG 1.1//EN" "http://www.w3.org/Graphics/SVG/1.1/DTD/svg11.dtd">
<svg version="1.1" xmlns="http://www.w3.org/2000/svg" xmlns:xlink="http://www.w3.org/1999/xlink" preserveAspectRatio="xMidYMid meet" viewBox="0 0 640 640" width="640" height="640"><defs><path d="M353.92 18.46C366.65 18.46 376.98 28.78 376.98 41.52C376.98 126.53 376.98 358.5 376.98 443.52C376.98 456.25 366.65 466.58 353.92 466.58C335.74 466.58 304.26 466.58 286.08 466.58C273.35 466.58 263.02 456.25 263.02 443.52C263.02 358.5 263.02 126.53 263.02 41.52C263.02 28.78 273.35 18.46 286.08 18.46C304.26 18.46 335.74 18.46 353.92 18.46Z" id="b2wlfGnmzH"></path><path d="M349.88 513.17C364.85 513.17 376.98 525.3 376.98 540.26C376.98 556.52 376.98 578.19 376.98 594.45C376.98 609.41 364.85 621.54 349.88 621.54C332.51 621.54 307.49 621.54 290.12 621.54C275.15 621.54 263.02 609.41 263.02 594.45C263.02 578.19 263.02 556.52 263.02 540.26C263.02 525.3 275.15 513.17 290.12 513.17C307.49 513.17 332.51 513.17 349.88 513.17Z" id="d2sRmI5spk"></path></defs><g><g><g><g><use xlink:href="#b2wlfGnmzH" opacity="1" fill="#ff4e4e" fill-opacity="1"></use></g><g><use xlink:href="#d2sRmI5spk" opacity="1" fill="#ff4e4e" fill-opacity="1"></use><g><use xlink:href="#d2sRmI5spk" opacity="1" fill-opacity="0" stroke="#fc3434" stroke-width="0" stroke-opacity="1"></use></g></g></g></g></g></svg>